<?xml version="1.0" encoding="UTF-8" standalone="no" ?>
<!DOCTYPE svg PUBLIC "-//W3C//DTD SVG 1.1//EN" "http://www.w3.org/Graphics/SVG/1.1/DTD/svg11.dtd">
<svg xmlns="http://www.w3.org/2000/svg" xmlns:xlink="http://www.w3.org/1999/xlink" version="1.1" width="1280" height="1024" viewBox="0 0 1280 1024" xml:space="preserve">
<desc>Created with Fabric.js 5.3.0</desc>
<defs>
</defs>
<g transform="matrix(1 0 0 1 640 512)" id="background-logo"  >
<rect style="stroke: none; stroke-width: 0; stroke-dasharray: none; stroke-linecap: butt; stroke-dashoffset: 0; stroke-linejoin: miter; stroke-miterlimit: 4; fill: rgb(255,255,255); fill-opacity: 0; fill-rule: nonzero; opacity: 1;"  paint-order="stroke"  x="-640" y="-512" rx="0" ry="0" width="1280" height="1024" />
</g>
<g transform="matrix(1.9211538461538462 0 0 1.9211538461538462 653.5771874356176 427.5606334888258)" id="logo-logo"  >
<g style=""  paint-order="stroke"   >
		<g transform="matrix(0.5128792644223631 0 0 0.5128792644223631 -0.00020484397822428946 1.400615367068525)"  >
<path style="stroke: none; stroke-width: 0; stroke-dasharray: none; stroke-linecap: butt; stroke-dashoffset: 0; stroke-linejoin: miter; stroke-miterlimit: 4; fill: rgb(217,217,216); fill-rule: nonzero; opacity: 1;"  paint-order="stroke"  transform=" translate(-249.99960059999998, -252.7308871)" d="M 332.3355031 207.3320803 L 332.3355031 235.085728 L 167.66369809999998 235.085728 L 167.66369809999998 207.3320803 L 199.58042329999998 207.3320803 L 199.58042329999998 139.84322600000002 C 199.58042329999998 132.43476270000002 205.58617249999998 126.42901360000002 212.99463569999998 126.42901360000002 C 220.40322039999998 126.42901360000002 226.40896959999998 132.43476280000002 226.40896959999998 139.84322600000002 L 226.40896959999998 207.33208030000003 L 273.5902314 207.33208030000003 L 273.5902314 139.84322600000002 C 273.5902314 132.43476270000002 279.5959806 126.42901360000002 287.00456529999997 126.42901360000002 C 294.41302859999996 126.42901360000002 300.41877769999996 132.43476280000002 300.41877769999996 139.84322600000002 L 300.41877769999996 207.33208030000003 L 332.33550289999994 207.33208030000003 Z M 201.8849168 329.0382967 C 201.8849168 329.0382967 223.7189362 283.0736598 241.2784918 245.8716129 L 174.3708042 245.8716129 L 174.3708042 303.4040251 C 174.3708042 338.6275989 198.4513769 368.2258618 231.0474734 376.637166 L 259.1791299 328.1659125 L 201.88491670000002 329.0382967 Z M 253.0329637 308.4458031 L 294.1086295 308.6666322 C 294.1086295 308.6666322 256.6875756 356.28481489999996 239.54720650000002 378.29666369999995 C 242.9655629 378.76953919999994 246.4510911 379.03276059999996 249.9995398 379.03276059999996 L 249.9996613 379.03276059999996 C 291.76830290000004 379.03276059999996 325.6283968 345.17266659999996 325.6283968 303.40402509999996 L 325.6283968 245.87161289999995 L 294.4879745 245.87161289999995 L 253.0329637 308.44580319999994 Z" stroke-linecap="round" />
</g>
		<g transform="matrix(0.5128792644223631 0 0 0.5128792644223631 0 2.842171e-14)"  >
<path style="stroke: none; stroke-width: 0; stroke-dasharray: none; stroke-linecap: butt; stroke-dashoffset: 0; stroke-linejoin: miter; stroke-miterlimit: 4; fill: rgb(201,228,101); fill-rule: nonzero; opacity: 1;"  paint-order="stroke"  transform=" translate(-250, -249.99999992232978)" d="M 396.5223844 135.2423319 L 277.8652769 66.73652460000001 C 260.6789929 56.81306350000001 239.3219788 56.81112000000001 222.13277960000002 66.73652460000001 L 103.47687110000003 135.2416397 C 86.23349230000002 145.1969775 75.61110830000003 163.5953647 75.61110830000003 183.50623760000002 L 75.61110830000003 320.5194212 C 75.61110830000003 336.4161656 82.46127390000002 351.4463529 94.02042970000002 361.89887880000003 C 98.57017780000002 366.01305130000003 105.79021980000002 364.7799014 108.85767080000002 359.46789920000003 L 108.85768050000003 359.4678824 C 111.15495220000003 355.4896242 110.31225780000003 350.4854453 106.91703090000003 347.3908646 C 99.44752250000003 340.5827787 95.02463210000003 330.83088899999996 95.02463210000003 320.5194212 L 95.02463210000003 183.5082193 C 95.02463210000003 170.53261840000002 101.94707170000004 158.54268050000002 113.18430890000003 152.0549444 L 231.84051320000003 83.5496585 C 243.04084730000002 77.08172300000001 256.95720910000006 77.08172300000001 268.1594867 83.5496585 L 386.8153952 152.0547736 C 398.01572930000003 158.5217373 404.97342430000003 170.5742919 404.97342430000003 183.5082193 L 404.97342430000003 320.5194212 C 404.97342430000003 333.4533486 398.01572930000003 345.5049315 386.8153952 351.9728669 L 267.9884596 420.57612819999997 C 265.7009716 421.8821536 263.6661373 421.08920959999995 262.6516355 420.50227559999996 C 261.9616965 420.09997309999994 259.7072478 418.54906789999995 259.7072478 415.43365309999996 L 259.7072478 386.41066329999995 C 256.5198024 386.78114109999996 253.2847414 386.9926171999999 249.9995141 386.9926171999999 C 246.8239725 386.9926171999999 243.5637677 386.7562401999999 240.2927522 386.37373699999995 L 240.2927522 415.43365309999996 C 240.2927522 424.53307429999995 245.005716 432.70350719999993 252.90114499999999 437.2882006 C 256.8231083 439.56597109999996 261.1259956 440.70679989999996 265.417222 440.70679989999996 C 269.60544339999996 440.70679989999996 273.7839474 439.62233239999995 277.5893013 437.45145379999997 L 396.52312889999996 368.78600079999995 C 413.71135639999994 358.8605962 424.38889169999993 340.3663432999999 424.38889169999993 320.51942119999995 L 424.38889169999993 183.50821929999995 C 424.38889169999993 163.59681439999994 413.76622389999994 145.19793559999994 396.5223843999999 135.24233189999995 Z" stroke-linecap="round" />
</g>
</g>
</g>
</svg>