<?xml version="1.0" encoding="UTF-8" standalone="no" ?>
<!DOCTYPE svg PUBLIC "-//W3C//DTD SVG 1.1//EN" "http://www.w3.org/Graphics/SVG/1.1/DTD/svg11.dtd">
<svg xmlns="http://www.w3.org/2000/svg" xmlns:xlink="http://www.w3.org/1999/xlink" version="1.1" width="1280" height="1024" viewBox="0 0 1280 1024" xml:space="preserve">
<desc>Created with Fabric.js 5.3.0</desc>
<defs>
</defs>
<g transform="matrix(1 0 0 1 640 512)" id="background-logo"  >
<rect style="stroke: none; stroke-width: 0; stroke-dasharray: none; stroke-linecap: butt; stroke-dashoffset: 0; stroke-linejoin: miter; stroke-miterlimit: 4; fill: rgb(255,255,255); fill-opacity: 0; fill-rule: nonzero; opacity: 1;"  paint-order="stroke"  x="-640" y="-512" rx="0" ry="0" width="1280" height="1024" />
</g>
<g transform="matrix(1.9211538461538462 0 0 1.9211538461538462 653.5771874356176 390.35395381544834)" id="logo-logo"  >
<g style=""  paint-order="stroke"   >
		<g transform="matrix(0.5128792644223631 0 0 0.5128792644223631 -0.00020484397822428946 1.400615367068525)"  >
<path style="stroke: none; stroke-width: 0; stroke-dasharray: none; stroke-linecap: butt; stroke-dashoffset: 0; stroke-linejoin: miter; stroke-miterlimit: 4; fill: rgb(217,217,216); fill-rule: nonzero; opacity: 1;"  paint-order="stroke"  transform=" translate(-249.99960059999998, -252.7308871)" d="M 332.3355031 207.3320803 L 332.3355031 235.085728 L 167.66369809999998 235.085728 L 167.66369809999998 207.3320803 L 199.58042329999998 207.3320803 L 199.58042329999998 139.84322600000002 C 199.58042329999998 132.43476270000002 205.58617249999998 126.42901360000002 212.99463569999998 126.42901360000002 C 220.40322039999998 126.42901360000002 226.40896959999998 132.43476280000002 226.40896959999998 139.84322600000002 L 226.40896959999998 207.33208030000003 L 273.5902314 207.33208030000003 L 273.5902314 139.84322600000002 C 273.5902314 132.43476270000002 279.5959806 126.42901360000002 287.00456529999997 126.42901360000002 C 294.41302859999996 126.42901360000002 300.41877769999996 132.43476280000002 300.41877769999996 139.84322600000002 L 300.41877769999996 207.33208030000003 L 332.33550289999994 207.33208030000003 Z M 201.8849168 329.0382967 C 201.8849168 329.0382967 223.7189362 283.0736598 241.2784918 245.8716129 L 174.3708042 245.8716129 L 174.3708042 303.4040251 C 174.3708042 338.6275989 198.4513769 368.2258618 231.0474734 376.637166 L 259.1791299 328.1659125 L 201.88491670000002 329.0382967 Z M 253.0329637 308.4458031 L 294.1086295 308.6666322 C 294.1086295 308.6666322 256.6875756 356.28481489999996 239.54720650000002 378.29666369999995 C 242.9655629 378.76953919999994 246.4510911 379.03276059999996 249.9995398 379.03276059999996 L 249.9996613 379.03276059999996 C 291.76830290000004 379.03276059999996 325.6283968 345.17266659999996 325.6283968 303.40402509999996 L 325.6283968 245.87161289999995 L 294.4879745 245.87161289999995 L 253.0329637 308.44580319999994 Z" stroke-linecap="round" />
</g>
		<g transform="matrix(0.5128792644223631 0 0 0.5128792644223631 0 2.842171e-14)"  >
<path style="stroke: none; stroke-width: 0; stroke-dasharray: none; stroke-linecap: butt; stroke-dashoffset: 0; stroke-linejoin: miter; stroke-miterlimit: 4; fill: rgb(201,228,101); fill-rule: nonzero; opacity: 1;"  paint-order="stroke"  transform=" translate(-250, -249.99999992232978)" d="M 396.5223844 135.2423319 L 277.8652769 66.73652460000001 C 260.6789929 56.81306350000001 239.3219788 56.81112000000001 222.13277960000002 66.73652460000001 L 103.47687110000003 135.2416397 C 86.23349230000002 145.1969775 75.61110830000003 163.5953647 75.61110830000003 183.50623760000002 L 75.61110830000003 320.5194212 C 75.61110830000003 336.4161656 82.46127390000002 351.4463529 94.02042970000002 361.89887880000003 C 98.57017780000002 366.01305130000003 105.79021980000002 364.7799014 108.85767080000002 359.46789920000003 L 108.85768050000003 359.4678824 C 111.15495220000003 355.4896242 110.31225780000003 350.4854453 106.91703090000003 347.3908646 C 99.44752250000003 340.5827787 95.02463210000003 330.83088899999996 95.02463210000003 320.5194212 L 95.02463210000003 183.5082193 C 95.02463210000003 170.53261840000002 101.94707170000004 158.54268050000002 113.18430890000003 152.0549444 L 231.84051320000003 83.5496585 C 243.04084730000002 77.08172300000001 256.95720910000006 77.08172300000001 268.1594867 83.5496585 L 386.8153952 152.0547736 C 398.01572930000003 158.5217373 404.97342430000003 170.5742919 404.97342430000003 183.5082193 L 404.97342430000003 320.5194212 C 404.97342430000003 333.4533486 398.01572930000003 345.5049315 386.8153952 351.9728669 L 267.9884596 420.57612819999997 C 265.7009716 421.8821536 263.6661373 421.08920959999995 262.6516355 420.50227559999996 C 261.9616965 420.09997309999994 259.7072478 418.54906789999995 259.7072478 415.43365309999996 L 259.7072478 386.41066329999995 C 256.5198024 386.78114109999996 253.2847414 386.9926171999999 249.9995141 386.9926171999999 C 246.8239725 386.9926171999999 243.5637677 386.7562401999999 240.2927522 386.37373699999995 L 240.2927522 415.43365309999996 C 240.2927522 424.53307429999995 245.005716 432.70350719999993 252.90114499999999 437.2882006 C 256.8231083 439.56597109999996 261.1259956 440.70679989999996 265.417222 440.70679989999996 C 269.60544339999996 440.70679989999996 273.7839474 439.62233239999995 277.5893013 437.45145379999997 L 396.52312889999996 368.78600079999995 C 413.71135639999994 358.8605962 424.38889169999993 340.3663432999999 424.38889169999993 320.51942119999995 L 424.38889169999993 183.50821929999995 C 424.38889169999993 163.59681439999994 413.76622389999994 145.19793559999994 396.5223843999999 135.24233189999995 Z" stroke-linecap="round" />
</g>
</g>
</g>
<g transform="matrix(1.9211538461538462 0 0 1.9211538461538462 653.7419569319909 710.5210197360909)" id="tagline-e7071f05-68cf-47da-ab69-900a33dff14a-logo"  >
<g style=""  paint-order="stroke"   >
		<g transform="matrix(1 0 0 1 0 0)" id="tagline-e7071f05-68cf-47da-ab69-900a33dff14a-logo-path-0"  >
<path style="stroke: none; stroke-width: 0; stroke-dasharray: none; stroke-linecap: butt; stroke-dashoffset: 0; stroke-linejoin: miter; stroke-miterlimit: 4; fill: rgb(217,217,216); fill-rule: nonzero; opacity: 1;"  paint-order="stroke"  transform=" translate(-145.45180000000002, 9.503561509626854)" d="M 0.65 -2.11 L 0.65 -2.11 L 0.75 -2.26 Q 0.98 -2.53 1.17 -2.58 L 1.17 -2.58 Q 1.32 -2.63 1.49 -2.65 Q 1.65 -2.67 1.73 -2.67 L 1.73 -2.67 L 1.82 -2.65 L 1.84 -2.63 Q 1.89 -2.29 2.04 -2.02 Q 2.18 -1.76 2.39 -1.63 Q 2.59 -1.5 2.75 -1.43 Q 2.91 -1.37 3.07 -1.35 L 3.07 -1.35 Q 3.3 -1.31 3.54 -1.31 L 3.54 -1.31 Q 3.94 -1.31 4.37 -1.42 L 4.37 -1.42 Q 5.05 -1.61 5.31 -2.16 L 5.31 -2.16 Q 5.7 -2.95 5.7 -4.21 L 5.7 -4.21 Q 5.7 -4.98 5.56 -5.9 L 5.56 -5.9 Q 5.33 -7.31 4.62 -8.59 Q 3.91 -9.88 2.83 -11.29 L 2.83 -11.29 Q 2.78 -11.34 2.67 -11.48 Q 2.56 -11.62 2.5 -11.68 L 2.5 -11.68 Q 1.6 -12.87 1.32 -13.44 L 1.32 -13.44 Q 0.89 -14.31 0.89 -15.18 L 0.89 -15.18 Q 0.89 -16.68 1.82 -17.63 Q 2.75 -18.59 4.16 -18.59 L 4.16 -18.59 Q 5.13 -18.59 5.96 -17.99 Q 6.79 -17.39 7.1 -16.43 L 7.1 -16.43 L 7.12 -16.25 Q 6.51 -15.77 6 -15.7 L 6 -15.7 Q 5.83 -15.83 5.78 -15.96 L 5.78 -15.96 Q 5.59 -16.54 5.16 -16.88 Q 4.74 -17.21 4.16 -17.21 L 4.16 -17.21 Q 2.36 -17.21 2.36 -15.18 L 2.36 -15.18 Q 2.36 -14.82 2.49 -14.43 Q 2.63 -14.04 2.95 -13.55 Q 3.26 -13.06 3.42 -12.85 Q 3.58 -12.64 4 -12.11 L 4 -12.11 Q 5.34 -10.38 6.05 -9.08 Q 6.75 -7.77 7.02 -6.11 L 7.02 -6.11 Q 7.19 -5.09 7.17 -4.21 L 7.17 -4.21 Q 7.17 -2.68 6.68 -1.61 L 6.68 -1.61 Q 6.28 -0.83 5.54 -0.36 Q 4.8 0.1 3.92 0.1 L 3.92 0.1 Q 3.03 0.1 2.88 0.05 L 2.88 0.05 Q 2.03 -0.08 1.43 -0.67 Q 0.83 -1.26 0.65 -2.11 Z M 17.57 -2.53 L 17.57 -2.53 L 17.57 -16.02 Q 17.57 -16.8 17.95 -17.41 Q 18.34 -18.01 18.95 -18.33 Q 19.56 -18.64 20.3 -18.79 L 20.3 -18.79 Q 20.67 -18.87 21.03 -18.87 L 21.03 -18.87 Q 21.41 -18.87 21.8 -18.79 L 21.8 -18.79 Q 22.54 -18.64 23.15 -18.32 Q 23.76 -18 24.15 -17.4 Q 24.54 -16.8 24.54 -16.02 L 24.54 -16.02 Q 24.51 -15.87 24.51 -12.5 Q 24.51 -9.13 24.54 -2.53 L 24.54 -2.53 Q 24.54 -1.75 24.15 -1.15 Q 23.76 -0.55 23.15 -0.23 L 23.15 -0.23 Q 22.53 0.08 21.8 0.23 L 21.8 0.23 Q 21.43 0.3 21.05 0.3 Q 20.68 0.3 20.31 0.23 L 20.31 0.23 Q 19.56 0.08 18.95 -0.23 Q 18.34 -0.53 17.95 -1.14 Q 17.57 -1.75 17.57 -2.53 Z M 18.95 -15.7 L 18.95 -2.83 Q 18.95 -2.75 18.96 -2.63 Q 18.98 -2.51 19.08 -2.2 Q 19.19 -1.89 19.39 -1.65 Q 19.59 -1.41 20.02 -1.21 Q 20.46 -1.02 21.06 -1.02 L 21.06 -1.02 Q 21.69 -1.02 22.14 -1.2 Q 22.58 -1.38 22.76 -1.66 Q 22.94 -1.93 23.03 -2.2 Q 23.12 -2.46 23.12 -2.64 L 23.12 -2.64 L 23.1 -2.83 L 23.1 -15.7 Q 23.1 -15.74 23.11 -15.81 Q 23.12 -15.87 23.09 -16.05 Q 23.06 -16.24 23.01 -16.41 Q 22.95 -16.58 22.81 -16.79 Q 22.67 -17 22.46 -17.15 Q 22.24 -17.29 21.88 -17.39 Q 21.52 -17.49 21.06 -17.49 L 21.06 -17.49 Q 20.46 -17.49 20.02 -17.31 Q 19.59 -17.13 19.39 -16.87 Q 19.19 -16.61 19.08 -16.34 Q 18.98 -16.07 18.96 -15.89 L 18.96 -15.89 L 18.95 -15.7 Z M 35.4 -0.67 L 35.4 -0.67 L 35.4 -17.94 Q 35.4 -18.27 35.48 -18.41 Q 35.55 -18.56 35.85 -18.61 L 35.85 -18.61 Q 35.96 -18.61 36.18 -18.63 Q 36.41 -18.65 36.62 -18.55 Q 36.84 -18.45 36.84 -18.23 L 36.84 -18.23 L 36.84 -1.96 Q 36.84 -1.64 36.96 -1.52 Q 37.08 -1.41 37.31 -1.41 L 37.31 -1.41 L 41.23 -1.41 Q 41.39 -1.41 41.47 -1.05 Q 41.55 -0.7 41.49 -0.34 Q 41.43 0.03 41.25 0.03 L 41.25 0.03 L 35.85 0.03 Q 35.55 -0.01 35.48 -0.17 Q 35.4 -0.32 35.4 -0.67 Z M 51.9 -2.78 L 51.9 -2.78 L 51.9 -18.33 Q 51.88 -18.64 52.2 -18.64 L 52.2 -18.64 L 52.87 -18.64 Q 53.07 -18.64 53.19 -18.54 Q 53.3 -18.45 53.31 -18.36 L 53.31 -18.36 L 53.31 -18.26 L 53.31 -3.07 Q 53.34 -3.07 53.31 -2.97 Q 53.29 -2.87 53.33 -2.7 Q 53.38 -2.54 53.42 -2.34 Q 53.47 -2.15 53.63 -1.95 Q 53.8 -1.75 54 -1.59 Q 54.21 -1.42 54.58 -1.32 Q 54.95 -1.22 55.42 -1.22 L 55.42 -1.22 Q 56.04 -1.22 56.49 -1.41 Q 56.94 -1.6 57.13 -1.87 Q 57.32 -2.15 57.43 -2.42 Q 57.53 -2.69 57.53 -2.88 L 57.53 -2.88 L 57.53 -3.07 L 57.53 -18.28 Q 57.53 -18.45 57.62 -18.54 Q 57.71 -18.62 57.79 -18.64 L 57.79 -18.64 L 57.88 -18.64 L 58.59 -18.64 Q 58.76 -18.64 58.84 -18.55 Q 58.92 -18.46 58.92 -18.37 L 58.92 -18.37 L 58.92 -18.28 L 58.92 -2.78 L 58.92 -2.75 Q 58.92 -1.59 57.95 -0.72 Q 56.97 0.14 55.55 0.15 L 55.55 0.15 L 55.28 0.15 Q 53.87 0.14 52.89 -0.73 Q 51.9 -1.6 51.9 -2.78 Z M 69.42 -2.93 L 69.42 -2.93 L 69.42 -15.58 Q 69.37 -16.81 70.19 -17.65 Q 71.02 -18.48 72.32 -18.64 L 72.32 -18.64 Q 73.85 -18.83 74.99 -17.98 Q 76.14 -17.13 76.14 -15.91 L 76.14 -15.91 Q 76.14 -15.56 75.77 -15.44 Q 75.4 -15.32 75.04 -15.43 Q 74.68 -15.54 74.68 -15.73 L 74.68 -15.73 Q 74.68 -16.25 74.08 -16.8 Q 73.48 -17.34 72.7 -17.34 L 72.7 -17.34 Q 71.78 -17.34 71.29 -16.81 Q 70.8 -16.28 70.78 -15.63 L 70.78 -15.63 L 70.78 -2.93 Q 70.8 -2.27 71.29 -1.75 Q 71.77 -1.22 72.7 -1.22 L 72.7 -1.22 Q 73.48 -1.22 74.08 -1.76 Q 74.68 -2.3 74.68 -2.81 L 74.68 -2.81 Q 74.68 -3 75.04 -3.11 Q 75.4 -3.22 75.77 -3.1 Q 76.14 -2.98 76.14 -2.63 L 76.14 -2.63 Q 76.14 -1.52 75.18 -0.7 Q 74.22 0.11 72.86 0.13 L 72.86 0.13 L 72.86 0.77 Q 73.55 0.77 73.92 0.95 Q 74.3 1.12 74.44 1.64 L 74.44 1.64 L 74.63 2.36 Q 74.77 2.89 74.63 3.35 Q 74.49 3.8 74.13 4.08 Q 73.78 4.35 73.31 4.5 Q 72.84 4.65 72.29 4.6 Q 71.74 4.56 71.25 4.34 L 71.25 4.34 L 71.21 4.16 Q 71.16 4 71.15 3.9 Q 71.13 3.81 71.13 3.66 Q 71.12 3.5 71.17 3.41 Q 71.22 3.31 71.32 3.28 L 71.32 3.28 Q 71.86 3.45 72.25 3.45 L 72.25 3.45 Q 72.67 3.45 72.94 3.33 Q 73.22 3.21 73.32 3.07 Q 73.42 2.92 73.44 2.7 Q 73.47 2.48 73.45 2.37 Q 73.43 2.27 73.41 2.16 L 73.41 2.16 Q 73.39 2.12 73.38 2.06 Q 73.37 1.99 73.36 1.97 Q 73.36 1.96 73.34 1.92 Q 73.32 1.88 73.28 1.87 Q 73.24 1.85 73.18 1.83 Q 73.11 1.82 73.01 1.81 Q 72.91 1.8 72.77 1.8 Q 72.63 1.79 72.44 1.79 L 72.44 1.79 L 71.77 1.79 Q 71.69 1.79 71.64 1.75 Q 71.58 1.71 71.57 1.68 L 71.57 1.68 L 71.55 1.64 L 71.55 -0.08 Q 70.56 -0.41 69.97 -1.17 Q 69.37 -1.93 69.42 -2.93 Z M 86.52 -2.53 L 86.52 -2.53 L 86.52 -16.02 Q 86.52 -16.8 86.91 -17.41 Q 87.29 -18.01 87.9 -18.33 Q 88.51 -18.64 89.25 -18.78 Q 90 -18.93 90.75 -18.78 Q 91.5 -18.64 92.1 -18.32 Q 92.71 -18 93.1 -17.4 Q 93.49 -16.8 93.49 -16.02 L 93.49 -16.02 Q 93.44 -15.73 93.49 -2.53 L 93.49 -2.53 Q 93.49 -1.75 93.1 -1.15 Q 92.71 -0.55 92.1 -0.23 Q 91.5 0.09 90.75 0.23 Q 90.01 0.38 89.26 0.23 Q 88.51 0.09 87.9 -0.22 Q 87.29 -0.53 86.91 -1.14 Q 86.52 -1.75 86.52 -2.53 Z M 87.22 -21.46 L 87.22 -21.46 Q 88.02 -22.6 89.25 -22.6 L 89.25 -22.6 Q 89.57 -22.6 89.84 -22.46 Q 90.12 -22.33 90.27 -22.2 Q 90.42 -22.06 90.63 -21.84 L 90.63 -21.84 Q 91 -21.42 91.25 -21.37 L 91.25 -21.37 Q 91.69 -21.25 92.5 -21.68 L 92.5 -21.68 Q 92.71 -21.47 92.79 -21.37 L 92.79 -21.37 Q 92.97 -21.11 92.87 -20.67 L 92.87 -20.67 Q 92.05 -20.27 91.43 -20.27 L 91.43 -20.27 Q 91.3 -20.27 90.99 -20.34 L 90.99 -20.34 Q 90.87 -20.36 90.77 -20.41 Q 90.66 -20.45 90.55 -20.52 Q 90.44 -20.58 90.38 -20.62 Q 90.33 -20.66 90.22 -20.75 Q 90.11 -20.85 90.09 -20.87 Q 90.06 -20.9 89.93 -21.02 L 89.93 -21.02 L 89.82 -21.14 Q 89.48 -21.53 89.25 -21.53 L 89.25 -21.53 Q 88.93 -21.53 88.65 -21.37 Q 88.37 -21.2 88.25 -21.06 Q 88.13 -20.91 88.05 -20.77 L 88.05 -20.77 Q 87.81 -20.81 87.64 -20.99 L 87.64 -20.99 Q 87.33 -21.19 87.22 -21.46 Z M 87.9 -15.7 L 87.9 -2.83 Q 87.9 -2.75 87.92 -2.63 Q 87.93 -2.51 88.04 -2.2 Q 88.14 -1.89 88.34 -1.65 Q 88.54 -1.41 88.98 -1.21 Q 89.41 -1.02 90.01 -1.02 L 90.01 -1.02 Q 90.64 -1.02 91.09 -1.2 Q 91.53 -1.38 91.71 -1.66 Q 91.89 -1.93 91.98 -2.2 Q 92.07 -2.46 92.07 -2.64 L 92.07 -2.64 L 92.05 -2.83 L 92.05 -15.7 Q 92.05 -15.74 92.06 -15.81 Q 92.07 -15.87 92.04 -16.05 Q 92.02 -16.24 91.96 -16.41 Q 91.9 -16.58 91.76 -16.79 Q 91.62 -17 91.41 -17.15 Q 91.19 -17.29 90.83 -17.39 Q 90.47 -17.49 90.01 -17.49 L 90.01 -17.49 Q 89.41 -17.49 88.98 -17.31 Q 88.54 -17.13 88.34 -16.87 Q 88.14 -16.61 88.04 -16.34 Q 87.93 -16.07 87.92 -15.89 L 87.92 -15.89 L 87.9 -15.7 Z M 103.88 -0.7 L 103.88 -0.7 L 103.88 -17.86 Q 103.88 -18.19 103.97 -18.35 Q 104.06 -18.51 104.33 -18.59 L 104.33 -18.59 L 104.45 -18.59 L 110.31 -18.59 Q 110.45 -18.54 110.4 -18.2 Q 110.36 -17.86 110.17 -17.48 Q 109.98 -17.09 109.81 -17.09 L 109.81 -17.09 L 105.81 -17.09 Q 105.37 -17.09 105.37 -16.54 L 105.37 -16.54 L 105.37 -12.01 Q 105.37 -11.86 105.39 -11.77 Q 105.41 -11.68 105.5 -11.61 Q 105.6 -11.54 105.79 -11.54 L 105.79 -11.54 L 108.28 -11.54 Q 108.62 -11.54 108.65 -11.15 Q 108.68 -10.77 108.48 -10.37 Q 108.28 -9.98 108.07 -9.98 L 108.07 -9.98 L 105.81 -9.98 Q 105.37 -9.98 105.37 -9.62 L 105.37 -9.62 L 105.37 -2.03 Q 105.37 -1.49 105.81 -1.49 L 105.81 -1.49 L 109.79 -1.49 Q 109.95 -1.49 110.14 -1.1 Q 110.32 -0.71 110.35 -0.38 Q 110.38 -0.05 110.23 0 L 110.23 0 L 104.56 0 L 104.51 0 L 104.45 0 L 104.33 0 Q 104.06 -0.05 103.97 -0.21 Q 103.88 -0.37 103.88 -0.7 Z M 120.55 -2.11 L 120.55 -2.11 L 120.65 -2.26 Q 120.88 -2.53 121.07 -2.58 L 121.07 -2.58 Q 121.22 -2.63 121.39 -2.65 Q 121.55 -2.67 121.63 -2.67 L 121.63 -2.67 L 121.72 -2.65 L 121.74 -2.63 Q 121.79 -2.29 121.94 -2.02 Q 122.09 -1.76 122.29 -1.63 Q 122.49 -1.5 122.65 -1.43 Q 122.81 -1.37 122.97 -1.35 L 122.97 -1.35 Q 123.2 -1.31 123.44 -1.31 L 123.44 -1.31 Q 123.84 -1.31 124.27 -1.42 L 124.27 -1.42 Q 124.95 -1.61 125.21 -2.16 L 125.21 -2.16 Q 125.6 -2.95 125.6 -4.21 L 125.6 -4.21 Q 125.6 -4.98 125.46 -5.9 L 125.46 -5.9 Q 125.23 -7.31 124.52 -8.59 Q 123.81 -9.88 122.73 -11.29 L 122.73 -11.29 Q 122.68 -11.34 122.57 -11.48 Q 122.47 -11.62 122.4 -11.68 L 122.4 -11.68 Q 121.5 -12.87 121.22 -13.44 L 121.22 -13.44 Q 120.79 -14.31 120.79 -15.18 L 120.79 -15.18 Q 120.79 -16.68 121.72 -17.63 Q 122.66 -18.59 124.07 -18.59 L 124.07 -18.59 Q 125.03 -18.59 125.86 -17.99 Q 126.69 -17.39 127 -16.43 L 127 -16.43 L 127.02 -16.25 Q 126.41 -15.77 125.91 -15.7 L 125.91 -15.7 Q 125.73 -15.83 125.68 -15.96 L 125.68 -15.96 Q 125.49 -16.54 125.06 -16.88 Q 124.64 -17.21 124.07 -17.21 L 124.07 -17.21 Q 122.26 -17.21 122.26 -15.18 L 122.26 -15.18 Q 122.26 -14.82 122.4 -14.43 Q 122.53 -14.04 122.85 -13.55 Q 123.16 -13.06 123.32 -12.85 Q 123.48 -12.64 123.9 -12.11 L 123.9 -12.11 Q 125.25 -10.38 125.95 -9.08 Q 126.66 -7.77 126.92 -6.11 L 126.92 -6.11 Q 127.09 -5.09 127.07 -4.21 L 127.07 -4.21 Q 127.07 -2.68 126.58 -1.61 L 126.58 -1.61 Q 126.19 -0.83 125.44 -0.36 Q 124.7 0.1 123.82 0.1 L 123.82 0.1 Q 122.94 0.1 122.78 0.05 L 122.78 0.05 Q 121.93 -0.08 121.33 -0.67 Q 120.73 -1.26 120.55 -2.11 Z M 151.76 -0.7 L 151.76 -0.7 L 151.76 -17.86 Q 151.76 -18.19 151.85 -18.35 Q 151.94 -18.51 152.21 -18.59 L 152.21 -18.59 L 152.33 -18.59 L 158.19 -18.59 Q 158.33 -18.54 158.28 -18.2 Q 158.24 -17.86 158.05 -17.48 Q 157.86 -17.09 157.69 -17.09 L 157.69 -17.09 L 153.69 -17.09 Q 153.25 -17.09 153.25 -16.54 L 153.25 -16.54 L 153.25 -12.01 Q 153.25 -11.86 153.27 -11.77 Q 153.29 -11.68 153.38 -11.61 Q 153.48 -11.54 153.67 -11.54 L 153.67 -11.54 L 156.15 -11.54 Q 156.5 -11.54 156.53 -11.15 Q 156.56 -10.77 156.36 -10.37 Q 156.15 -9.98 155.95 -9.98 L 155.95 -9.98 L 153.69 -9.98 Q 153.25 -9.98 153.25 -9.62 L 153.25 -9.62 L 153.25 -2.03 Q 153.25 -1.49 153.69 -1.49 L 153.69 -1.49 L 157.67 -1.49 Q 157.83 -1.49 158.01 -1.1 Q 158.2 -0.71 158.23 -0.38 Q 158.26 -0.05 158.11 0 L 158.11 0 L 152.44 0 L 152.38 0 L 152.33 0 L 152.21 0 Q 151.94 -0.05 151.85 -0.21 Q 151.76 -0.37 151.76 -0.7 Z M 168.68 -0.67 L 168.68 -0.67 L 168.68 -17.94 Q 168.68 -18.27 168.76 -18.41 Q 168.83 -18.56 169.13 -18.61 L 169.13 -18.61 Q 169.24 -18.61 169.46 -18.63 Q 169.69 -18.65 169.9 -18.55 Q 170.12 -18.45 170.12 -18.23 L 170.12 -18.23 L 170.12 -1.96 Q 170.12 -1.64 170.24 -1.52 Q 170.36 -1.41 170.59 -1.41 L 170.59 -1.41 L 174.51 -1.41 Q 174.67 -1.41 174.75 -1.05 Q 174.83 -0.7 174.77 -0.34 Q 174.71 0.03 174.54 0.03 L 174.54 0.03 L 169.13 0.03 Q 168.83 -0.01 168.76 -0.17 Q 168.68 -0.32 168.68 -0.67 Z M 185.18 -0.7 L 185.18 -0.7 L 185.18 -17.86 Q 185.18 -18.19 185.27 -18.35 Q 185.36 -18.51 185.63 -18.59 L 185.63 -18.59 L 185.76 -18.59 L 191.61 -18.59 Q 191.75 -18.54 191.7 -18.2 Q 191.66 -17.86 191.47 -17.48 Q 191.28 -17.09 191.11 -17.09 L 191.11 -17.09 L 187.11 -17.09 Q 186.67 -17.09 186.67 -16.54 L 186.67 -16.54 L 186.67 -12.01 Q 186.67 -11.86 186.69 -11.77 Q 186.71 -11.68 186.8 -11.61 Q 186.9 -11.54 187.09 -11.54 L 187.09 -11.54 L 189.58 -11.54 Q 189.92 -11.54 189.95 -11.15 Q 189.98 -10.77 189.78 -10.37 Q 189.58 -9.98 189.37 -9.98 L 189.37 -9.98 L 187.11 -9.98 Q 186.67 -9.98 186.67 -9.62 L 186.67 -9.62 L 186.67 -2.03 Q 186.67 -1.49 187.11 -1.49 L 187.11 -1.49 L 191.09 -1.49 Q 191.25 -1.49 191.44 -1.1 Q 191.62 -0.71 191.65 -0.38 Q 191.68 -0.05 191.53 0 L 191.53 0 L 185.86 0 L 185.81 0 L 185.76 0 L 185.63 0 Q 185.36 -0.05 185.27 -0.21 Q 185.18 -0.37 185.18 -0.7 Z M 187.32 -22.05 Q 186.94 -21.76 186.85 -21.53 Q 186.77 -21.3 186.92 -21.04 L 186.92 -21.04 Q 187.01 -20.87 187.27 -20.76 Q 187.53 -20.64 187.76 -20.74 L 187.76 -20.74 Q 189.3 -21.43 190.49 -22.25 L 190.49 -22.25 Q 190.76 -22.43 190.74 -22.72 Q 190.72 -23.02 190.49 -23.35 L 190.49 -23.35 Q 190.35 -23.56 190.17 -23.61 Q 189.98 -23.65 189.82 -23.58 Q 189.65 -23.51 189.4 -23.35 L 189.4 -23.35 L 187.32 -22.05 Z M 201.85 -17.76 L 201.85 -17.76 Q 201.85 -18.04 202.12 -18.33 Q 202.38 -18.61 202.61 -18.61 L 202.61 -18.61 L 208.97 -18.61 Q 209.52 -18.61 209.52 -17.86 L 209.52 -17.86 Q 209.52 -17.24 208.74 -17.24 L 208.74 -17.24 L 206.93 -17.24 Q 206.48 -17.24 206.41 -16.87 L 206.41 -16.87 L 206.41 -0.32 Q 206.41 -0.11 206.14 -0.01 Q 205.87 0.1 205.54 0.1 L 205.54 0.1 Q 205.01 0.1 204.97 -0.44 L 204.97 -0.44 L 204.97 -16.97 Q 204.97 -17.27 204.74 -17.27 L 204.74 -17.27 L 202.74 -17.27 Q 201.85 -17.27 201.85 -17.76 Z M 219.91 -0.47 L 219.91 -0.47 L 219.91 -17.96 Q 219.91 -18.36 220.03 -18.51 Q 220.15 -18.66 220.59 -18.66 L 220.59 -18.66 Q 222.77 -18.66 223.66 -18.56 L 223.66 -18.56 Q 224.18 -18.51 224.62 -18.37 Q 225.05 -18.23 225.37 -18.05 Q 225.69 -17.88 225.94 -17.61 Q 226.2 -17.34 226.36 -17.11 Q 226.51 -16.87 226.64 -16.54 Q 226.76 -16.2 226.81 -15.96 Q 226.87 -15.73 226.91 -15.38 Q 226.95 -15.03 226.95 -14.86 Q 226.96 -14.69 226.96 -14.38 Q 226.96 -14.08 226.96 -14.02 L 226.96 -14.02 Q 226.93 -14 226.96 -13.82 Q 226.98 -13.63 226.92 -13.3 Q 226.86 -12.96 226.79 -12.57 Q 226.72 -12.19 226.48 -11.75 Q 226.25 -11.31 225.95 -10.93 Q 225.65 -10.55 225.14 -10.24 Q 224.62 -9.93 223.98 -9.78 L 223.98 -9.78 L 227.06 -0.42 Q 227.06 -0.37 227.04 -0.3 Q 227.01 -0.23 226.86 -0.1 Q 226.71 0.03 226.46 0.05 L 226.46 0.05 Q 226.24 0.09 225.99 -0.01 Q 225.75 -0.1 225.64 -0.2 L 225.64 -0.2 L 225.51 -0.32 Q 222.83 -8.52 222.54 -9.36 L 222.54 -9.36 Q 222.43 -9.67 222.2 -9.67 L 222.2 -9.67 L 221.72 -9.67 Q 221.35 -9.67 221.35 -9.36 L 221.35 -9.36 L 221.35 -0.42 Q 221.35 -0.22 221.04 -0.07 Q 220.74 0.08 220.48 0.08 L 220.48 0.08 Q 220.46 0.08 220.38 0.08 Q 220.31 0.08 220.28 0.08 Q 220.26 0.08 220.2 0.07 Q 220.14 0.06 220.12 0.05 Q 220.09 0.04 220.05 0.01 Q 220 -0.01 219.99 -0.05 Q 219.98 -0.09 219.95 -0.15 Q 219.93 -0.2 219.92 -0.29 Q 219.91 -0.37 219.91 -0.47 Z M 221.35 -16.62 L 221.35 -11.73 Q 221.35 -11.5 221.44 -11.38 Q 221.53 -11.26 221.79 -11.26 L 221.79 -11.26 L 223.19 -11.26 Q 225.61 -11.39 225.61 -13.98 L 225.61 -13.98 Q 225.61 -14.05 225.61 -14.14 L 225.61 -14.14 Q 225.61 -14.51 225.6 -14.73 Q 225.59 -14.96 225.53 -15.34 Q 225.47 -15.72 225.32 -15.96 Q 225.17 -16.21 224.93 -16.48 Q 224.7 -16.75 224.29 -16.9 Q 223.89 -17.06 223.35 -17.11 L 223.35 -17.11 Q 222.88 -17.16 221.82 -17.16 L 221.82 -17.16 Q 221.35 -17.16 221.35 -16.62 L 221.35 -16.62 Z M 237.46 -18.01 L 237.46 -0.55 Q 237.46 -0.27 237.56 -0.16 Q 237.66 -0.05 237.95 -0.05 L 237.95 -0.05 Q 238.89 -0.05 238.89 -0.42 L 238.89 -0.42 L 238.89 -18.26 Q 238.89 -18.51 238.65 -18.64 Q 238.41 -18.78 238.03 -18.78 L 238.03 -18.78 Q 237.68 -18.78 237.57 -18.59 Q 237.46 -18.4 237.46 -18.01 L 237.46 -18.01 Z M 249.65 -2.93 L 249.65 -2.93 L 249.65 -15.58 Q 249.65 -15.65 249.65 -15.72 L 249.65 -15.72 Q 249.65 -16.86 250.43 -17.65 L 250.43 -17.65 Q 251.25 -18.48 252.55 -18.64 L 252.55 -18.64 Q 252.83 -18.67 253.09 -18.67 L 253.09 -18.67 Q 254.29 -18.67 255.23 -17.98 L 255.23 -17.98 Q 256.37 -17.13 256.37 -15.91 L 256.37 -15.91 Q 256.37 -15.56 256 -15.44 Q 255.63 -15.32 255.27 -15.43 Q 254.91 -15.54 254.91 -15.73 L 254.91 -15.73 Q 254.91 -16.25 254.31 -16.8 Q 253.72 -17.34 252.93 -17.34 L 252.93 -17.34 Q 252.01 -17.34 251.53 -16.81 Q 251.04 -16.28 251.01 -15.63 L 251.01 -15.63 L 251.01 -2.93 Q 251.04 -2.27 251.52 -1.75 Q 252 -1.22 252.93 -1.22 L 252.93 -1.22 Q 253.72 -1.22 254.31 -1.76 Q 254.91 -2.3 254.91 -2.81 L 254.91 -2.81 Q 254.91 -3 255.27 -3.11 Q 255.63 -3.22 256 -3.1 Q 256.37 -2.98 256.37 -2.63 L 256.37 -2.63 Q 256.37 -1.42 255.23 -0.58 L 255.23 -0.58 Q 254.27 0.13 253.04 0.13 L 253.04 0.13 Q 252.8 0.13 252.55 0.1 L 252.55 0.1 Q 251.27 -0.05 250.43 -0.89 L 250.43 -0.89 Q 249.64 -1.69 249.65 -2.79 L 249.65 -2.79 Q 249.65 -2.87 249.65 -2.93 Z M 266.31 -0.42 L 266.31 -0.42 Q 266.31 -0.67 267.43 -9.21 Q 268.55 -17.75 268.62 -18.09 L 268.62 -18.09 Q 268.74 -18.56 269.14 -18.56 L 269.14 -18.56 L 270.75 -18.56 Q 270.95 -18.56 271.1 -18.43 Q 271.25 -18.31 271.25 -18.09 L 271.25 -18.09 Q 271.31 -17.86 272.45 -9.28 Q 273.59 -0.7 273.59 -0.42 L 273.59 -0.42 Q 273.59 0.05 273.05 0.05 L 273.05 0.05 Q 272.31 0.05 272.24 -0.34 L 272.24 -0.34 Q 272.24 -0.41 272.15 -1.04 Q 272.07 -1.68 271.89 -3.01 Q 271.72 -4.34 271.56 -5.56 L 271.56 -5.56 Q 271.49 -5.85 271.3 -5.85 L 271.3 -5.85 L 268.59 -5.85 Q 268.41 -5.85 268.34 -5.56 L 268.34 -5.56 Q 268.19 -4.34 268.01 -3.01 Q 267.83 -1.68 267.75 -1.04 Q 267.67 -0.41 267.67 -0.34 L 267.67 -0.34 Q 267.61 0.05 266.85 0.05 L 266.85 0.05 Q 266.31 0.05 266.31 -0.42 Z M 268.76 -7.93 Q 268.68 -7.6 268.74 -7.53 Q 268.81 -7.46 269.11 -7.46 L 269.11 -7.46 L 270.78 -7.46 Q 271.08 -7.46 271.15 -7.53 Q 271.22 -7.6 271.14 -7.93 L 271.14 -7.93 Q 270.9 -9.76 270.62 -12.14 Q 270.33 -14.51 270.19 -15.77 Q 270.04 -17.02 270 -17.02 L 270 -17.02 L 269.9 -17.02 Q 269.86 -17.02 269.72 -15.77 Q 269.57 -14.51 269.28 -12.14 Q 269 -9.76 268.76 -7.93 L 268.76 -7.93 Z M 283.72 -2.11 L 283.72 -2.11 L 283.82 -2.26 Q 284.05 -2.53 284.24 -2.58 L 284.24 -2.58 Q 284.4 -2.63 284.56 -2.65 Q 284.73 -2.67 284.8 -2.67 L 284.8 -2.67 L 284.89 -2.65 L 284.92 -2.63 Q 284.97 -2.29 285.11 -2.02 Q 285.26 -1.76 285.46 -1.63 Q 285.66 -1.5 285.82 -1.43 Q 285.98 -1.37 286.15 -1.35 L 286.15 -1.35 Q 286.38 -1.31 286.62 -1.31 L 286.62 -1.31 Q 287.01 -1.31 287.44 -1.42 L 287.44 -1.42 Q 288.13 -1.61 288.38 -2.16 L 288.38 -2.16 Q 288.78 -2.95 288.78 -4.21 L 288.78 -4.21 Q 288.78 -4.98 288.64 -5.9 L 288.64 -5.9 Q 288.41 -7.31 287.7 -8.59 Q 286.99 -9.88 285.91 -11.29 L 285.91 -11.29 Q 285.86 -11.34 285.75 -11.48 Q 285.64 -11.62 285.58 -11.68 L 285.58 -11.68 Q 284.67 -12.87 284.4 -13.44 L 284.4 -13.44 Q 283.96 -14.31 283.96 -15.18 L 283.96 -15.18 Q 283.96 -16.68 284.9 -17.63 Q 285.83 -18.59 287.24 -18.59 L 287.24 -18.59 Q 288.2 -18.59 289.04 -17.99 Q 289.87 -17.39 290.17 -16.43 L 290.17 -16.43 L 290.2 -16.25 Q 289.59 -15.77 289.08 -15.7 L 289.08 -15.7 Q 288.9 -15.83 288.85 -15.96 L 288.85 -15.96 Q 288.66 -16.54 288.24 -16.88 Q 287.81 -17.21 287.24 -17.21 L 287.24 -17.21 Q 285.44 -17.21 285.44 -15.18 L 285.44 -15.18 Q 285.44 -14.82 285.57 -14.43 Q 285.7 -14.04 286.02 -13.55 Q 286.34 -13.06 286.5 -12.85 Q 286.66 -12.64 287.07 -12.11 L 287.07 -12.11 Q 288.42 -10.38 289.12 -9.08 Q 289.83 -7.77 290.1 -6.11 L 290.1 -6.11 Q 290.26 -5.09 290.25 -4.21 L 290.25 -4.21 Q 290.25 -2.68 289.75 -1.61 L 289.75 -1.61 Q 289.36 -0.83 288.62 -0.36 Q 287.87 0.1 287 0.1 L 287 0.1 Q 286.11 0.1 285.96 0.05 L 285.96 0.05 Q 285.11 -0.08 284.5 -0.67 Q 283.9 -1.26 283.72 -2.11 Z" stroke-linecap="round" />
</g>
</g>
</g>
<g transform="matrix(1.9211538461538462 0 0 1.9211538461538462 716.91023257774 639.8807081535946)" id="tagline-f9bda757-0806-43f3-ac8a-e6d2add5d6f6-logo"  >
<g style=""  paint-order="stroke"   >
		<g transform="matrix(1 0 0 1 0 0)" id="tagline-f9bda757-0806-43f3-ac8a-e6d2add5d6f6-logo-path-0"  >
<path style="stroke: rgb(255,255,255); stroke-width: 0; stroke-dasharray: none; stroke-linecap: butt; stroke-dashoffset: 0; stroke-linejoin: miter; stroke-miterlimit: 4; fill: rgb(201,228,101); fill-rule: nonzero; opacity: 1;"  paint-order="stroke"  transform=" translate(-64.48909188869051, 10.809999999999999)" d="M 8.76 -3.7 L 8.76 -3.7 L 8.76 -9.91 Q 8.76 -10.03 8.76 -10.14 L 8.76 -10.14 Q 8.75 -11.5 9.65 -12.39 L 9.65 -12.39 Q 10.62 -13.37 12.19 -13.55 L 12.19 -13.55 Q 12.56 -13.61 12.9 -13.61 L 12.9 -13.61 Q 14.16 -13.61 15.2 -12.93 L 15.2 -12.93 Q 15.84 -12.47 16.08 -11.83 L 16.08 -11.83 Q 16.2 -11.51 16.2 -11.1 L 16.2 -11.1 Q 16.2 -10.68 16.07 -10.18 L 16.07 -10.18 Q 15.82 -9.18 14.97 -7.99 L 14.97 -7.99 Q 12.89 -5.37 10.33 -4.81 L 10.33 -4.81 L 10.33 -3.64 Q 10.39 -2.82 10.97 -2.2 Q 11.55 -1.57 12.68 -1.57 L 12.68 -1.57 Q 13.33 -1.57 14.12 -2.03 L 14.12 -2.03 Q 14.2 -2.07 14.51 -2.3 Q 14.83 -2.53 15.08 -2.66 Q 15.33 -2.78 15.54 -2.78 L 15.54 -2.78 Q 15.94 -2.77 16.11 -2.43 L 16.11 -2.43 Q 16.17 -2.29 16.17 -2.12 L 16.17 -2.12 Q 16.17 -1.83 16 -1.44 L 16 -1.44 Q 15.4 -0.66 14.37 -0.26 L 14.37 -0.26 Q 13.64 0.01 12.84 0.01 L 12.84 0.01 Q 12.52 0.01 12.19 -0.03 L 12.19 -0.03 Q 10.62 -0.21 9.65 -1.21 L 9.65 -1.21 Q 8.75 -2.14 8.76 -3.48 L 8.76 -3.48 Q 8.76 -3.59 8.76 -3.7 Z M 10.36 -10.18 L 10.36 -7.58 Q 10.36 -7.15 10.48 -7 Q 10.61 -6.86 10.98 -6.86 L 10.98 -6.86 Q 11.19 -6.86 11.94 -7.4 Q 12.68 -7.94 13.42 -8.69 L 13.42 -8.69 Q 14.18 -9.44 14.5 -10.23 L 14.5 -10.23 Q 14.6 -10.49 14.6 -10.73 L 14.6 -10.73 Q 14.6 -11.19 14.17 -11.52 L 14.17 -11.52 Q 13.35 -12.04 12.68 -12.04 L 12.68 -12.04 Q 11.64 -12.04 11.07 -11.49 Q 10.5 -10.94 10.36 -10.18 L 10.36 -10.18 Z M 20.23 -1.46 L 20.23 -1.46 L 20.23 -19.2 Q 20.23 -19.51 20.43 -19.62 Q 20.63 -19.74 21 -19.74 L 21 -19.74 Q 21.35 -19.74 21.56 -19.57 Q 21.77 -19.41 21.77 -19.12 L 21.77 -19.12 L 21.77 -1.94 Q 21.77 -1.54 22.01 -1.54 L 22.01 -1.54 L 22.21 -1.54 Q 22.67 -1.54 22.67 -0.8 L 22.67 -0.8 Q 22.67 0 22.21 0 L 22.21 0 L 21.29 0 Q 20.94 0 20.71 -0.13 Q 20.48 -0.26 20.39 -0.5 Q 20.3 -0.74 20.26 -0.95 Q 20.23 -1.16 20.23 -1.46 Z M 26.7 -3.7 L 26.7 -3.7 L 26.7 -9.91 Q 26.7 -10.03 26.7 -10.14 L 26.7 -10.14 Q 26.69 -11.5 27.59 -12.39 L 27.59 -12.39 Q 28.56 -13.37 30.13 -13.55 L 30.13 -13.55 Q 30.5 -13.61 30.84 -13.61 L 30.84 -13.61 Q 32.09 -13.61 33.14 -12.93 L 33.14 -12.93 Q 33.78 -12.47 34.02 -11.83 L 34.02 -11.83 Q 34.14 -11.51 34.14 -11.1 L 34.14 -11.1 Q 34.14 -10.68 34.01 -10.18 L 34.01 -10.18 Q 33.76 -9.18 32.91 -7.99 L 32.91 -7.99 Q 30.83 -5.37 28.27 -4.81 L 28.27 -4.81 L 28.27 -3.64 Q 28.32 -2.82 28.9 -2.2 Q 29.48 -1.57 30.62 -1.57 L 30.62 -1.57 Q 31.26 -1.57 32.05 -2.03 L 32.05 -2.03 Q 32.13 -2.07 32.45 -2.3 Q 32.77 -2.53 33.02 -2.66 Q 33.27 -2.78 33.48 -2.78 L 33.48 -2.78 Q 33.87 -2.77 34.05 -2.43 L 34.05 -2.43 Q 34.11 -2.29 34.11 -2.12 L 34.11 -2.12 Q 34.11 -1.83 33.94 -1.44 L 33.94 -1.44 Q 33.33 -0.66 32.31 -0.26 L 32.31 -0.26 Q 31.58 0.01 30.78 0.01 L 30.78 0.01 Q 30.46 0.01 30.13 -0.03 L 30.13 -0.03 Q 28.56 -0.21 27.59 -1.21 L 27.59 -1.21 Q 26.69 -2.14 26.7 -3.48 L 26.7 -3.48 Q 26.7 -3.59 26.7 -3.7 Z M 28.3 -10.18 L 28.3 -7.58 Q 28.3 -7.15 28.42 -7 Q 28.55 -6.86 28.92 -6.86 L 28.92 -6.86 Q 29.13 -6.86 29.87 -7.4 Q 30.62 -7.94 31.36 -8.69 L 31.36 -8.69 Q 32.12 -9.44 32.44 -10.23 L 32.44 -10.23 Q 32.54 -10.49 32.54 -10.73 L 32.54 -10.73 Q 32.54 -11.19 32.11 -11.52 L 32.11 -11.52 Q 31.29 -12.04 30.62 -12.04 L 30.62 -12.04 Q 29.58 -12.04 29.01 -11.49 Q 28.44 -10.94 28.3 -10.18 L 28.3 -10.18 Z M 38.3 -13.17 L 38.3 -13.17 Q 38.3 -13.65 38.43 -13.82 Q 38.55 -13.99 38.87 -13.99 L 38.87 -13.99 L 40.04 -13.99 L 40.04 -17.14 Q 40.04 -17.4 40.21 -17.51 Q 40.38 -17.63 40.85 -17.63 L 40.85 -17.63 Q 41.24 -17.63 41.45 -17.48 Q 41.65 -17.34 41.65 -17.14 L 41.65 -17.14 L 41.65 -13.99 L 43.14 -13.99 Q 43.44 -13.99 43.53 -13.82 Q 43.63 -13.66 43.63 -13.17 L 43.63 -13.17 Q 43.63 -12.29 43.14 -12.29 L 43.14 -12.29 L 41.65 -12.29 L 41.65 -2.68 Q 41.65 -1.98 41.8 -1.82 Q 41.95 -1.66 42.78 -1.54 L 42.78 -1.54 Q 42.95 -1.54 42.95 -1.4 L 42.95 -1.4 L 42.95 -0.16 Q 42.95 0.08 42.78 0.08 L 42.78 0.08 L 42.7 0.08 Q 41.14 0.03 40.56 -0.66 L 40.56 -0.66 Q 40.04 -1.28 40.03 -2.6 L 40.03 -2.6 Q 40.03 -2.76 40.04 -2.91 L 40.04 -2.91 L 40.04 -12.29 L 38.87 -12.29 Q 38.62 -12.29 38.46 -12.52 Q 38.3 -12.75 38.3 -13.17 Z M 48.21 -0.41 L 48.21 -0.41 L 48.21 -13.06 Q 48.21 -13.53 49.03 -13.53 L 49.03 -13.53 Q 49.37 -13.53 49.59 -13.37 Q 49.81 -13.21 49.81 -12.93 L 49.81 -12.93 L 49.81 -12.37 Q 50.56 -13.32 51.64 -13.45 L 51.64 -13.45 Q 51.88 -13.47 52.11 -13.47 Q 52.34 -13.46 52.56 -13.45 L 52.56 -13.45 Q 52.92 -13.41 53.29 -13.29 L 53.29 -13.29 Q 53.33 -13.16 53.33 -12.95 Q 53.33 -12.74 53.29 -12.42 L 53.29 -12.42 Q 53.22 -12.1 52.92 -11.69 L 52.92 -11.69 Q 52.83 -11.71 52.65 -11.75 Q 52.47 -11.79 52.43 -11.8 L 52.43 -11.8 Q 52.27 -11.81 52.11 -11.81 L 52.11 -11.81 Q 51.85 -11.81 51.59 -11.77 L 51.59 -11.77 Q 50.8 -11.64 50.3 -10.97 Q 49.81 -10.3 49.81 -9.64 L 49.81 -9.64 L 49.81 -0.41 Q 49.69 0.05 49.03 0.05 L 49.03 0.05 Q 48.21 0.05 48.21 -0.41 Z M 57.39 -12.67 L 57.39 -0.95 Q 57.39 0 57.95 0 L 57.95 0 Q 58.33 0 58.64 -0.13 Q 58.95 -0.25 58.95 -0.51 L 58.95 -0.51 L 58.95 -12.91 Q 58.95 -13.5 58.03 -13.5 L 58.03 -13.5 Q 57.39 -13.5 57.39 -12.67 L 57.39 -12.67 Z M 57.41 -17.9 L 57.41 -17.9 Q 57.41 -17.51 57.54 -17.17 Q 57.66 -16.82 57.9 -16.82 L 57.9 -16.82 Q 58.31 -16.82 58.64 -16.95 Q 58.98 -17.07 58.98 -17.34 L 58.98 -17.34 L 58.98 -18.47 Q 58.98 -18.75 58.71 -18.92 Q 58.44 -19.09 58.06 -19.09 L 58.06 -19.09 Q 57.66 -19.09 57.54 -18.88 Q 57.41 -18.67 57.41 -17.9 Z M 63.03 -3.59 L 63.03 -3.59 L 63.03 -9.91 Q 63.03 -9.99 63.03 -10.06 L 63.03 -10.06 Q 63.04 -11.44 63.96 -12.39 L 63.96 -12.39 Q 64.94 -13.39 66.48 -13.58 L 66.48 -13.58 Q 66.81 -13.62 67.13 -13.62 L 67.13 -13.62 Q 67.9 -13.63 68.59 -13.39 L 68.59 -13.39 Q 69.56 -13.08 70.18 -12.39 L 70.18 -12.39 Q 70.41 -12.17 70.43 -11.96 Q 70.46 -11.75 70.32 -11.58 Q 70.18 -11.42 70.02 -11.3 Q 69.85 -11.19 69.67 -11.13 L 69.67 -11.13 Q 69.49 -11.02 69.28 -11.07 Q 69.08 -11.13 68.97 -11.19 Q 68.87 -11.26 68.69 -11.4 Q 68.52 -11.54 68.4 -11.59 L 68.4 -11.59 Q 67.75 -12.01 66.99 -12.01 L 66.99 -12.01 Q 65.83 -12.01 65.25 -11.38 Q 64.67 -10.76 64.65 -9.94 L 64.65 -9.94 L 64.65 -3.56 Q 64.67 -2.74 65.25 -2.12 Q 65.83 -1.49 66.99 -1.49 L 66.99 -1.49 Q 67.43 -1.49 67.77 -1.6 Q 68.11 -1.71 68.27 -1.82 Q 68.42 -1.92 68.67 -2.14 L 68.67 -2.14 Q 69.42 -2.65 69.85 -2.7 L 69.85 -2.7 Q 70.18 -2.7 70.34 -2.33 Q 70.49 -1.96 70.42 -1.65 L 70.42 -1.65 Q 70.42 -1.44 70.34 -1.32 L 70.34 -1.32 Q 69.74 -0.55 68.71 -0.17 L 68.71 -0.17 Q 67.94 0.12 67.09 0.12 L 67.09 0.12 Q 66.78 0.12 66.48 0.08 L 66.48 0.08 Q 64.94 -0.11 63.96 -1.11 L 63.96 -1.11 Q 63.03 -2.06 63.03 -3.44 L 63.03 -3.44 Q 63.03 -3.51 63.03 -3.59 Z M 74.49 -12.67 L 74.49 -0.95 Q 74.49 0 75.06 0 L 75.06 0 Q 75.44 0 75.75 -0.13 Q 76.06 -0.25 76.06 -0.51 L 76.06 -0.51 L 76.06 -12.91 Q 76.06 -13.5 75.14 -13.5 L 75.14 -13.5 Q 74.49 -13.5 74.49 -12.67 L 74.49 -12.67 Z M 74.52 -17.9 L 74.52 -17.9 Q 74.52 -17.51 74.64 -17.17 Q 74.77 -16.82 75.01 -16.82 L 75.01 -16.82 Q 75.42 -16.82 75.75 -16.95 Q 76.09 -17.07 76.09 -17.34 L 76.09 -17.34 L 76.09 -18.47 Q 76.09 -18.75 75.82 -18.92 Q 75.55 -19.09 75.16 -19.09 L 75.16 -19.09 Q 74.77 -19.09 74.64 -18.88 Q 74.52 -18.67 74.52 -17.9 Z M 80.15 -5.62 L 80.15 -5.62 Q 80.15 -6.78 80.36 -8.15 L 80.36 -8.15 Q 80.65 -9.82 81.57 -10.9 L 81.57 -10.9 Q 83.4 -12.93 85.7 -13.5 L 85.7 -13.5 L 85.7 -21.15 Q 85.7 -21.42 85.92 -21.58 Q 86.14 -21.74 86.45 -21.74 L 86.45 -21.74 Q 87.16 -21.74 87.16 -21.3 L 87.16 -21.3 L 87.16 -1.08 Q 87.16 0.08 86.32 0.08 L 86.32 0.08 Q 84.11 0.08 83.19 -0.08 L 83.19 -0.08 Q 82.95 -0.12 82.68 -0.22 Q 82.41 -0.32 82.04 -0.58 Q 81.68 -0.84 81.35 -1.22 Q 81.03 -1.6 80.74 -2.23 L 80.74 -2.23 Q 80.45 -2.87 80.29 -3.67 L 80.29 -3.67 Q 80.13 -4.43 80.13 -5.52 L 80.13 -5.52 Q 80.15 -5.56 80.15 -5.62 Z M 81.57 -6.02 L 81.57 -6.02 Q 81.6 -4.96 81.79 -4.11 Q 81.99 -3.27 82.28 -2.77 Q 82.57 -2.27 82.95 -1.94 Q 83.32 -1.61 83.66 -1.49 Q 84 -1.37 84.32 -1.37 L 84.32 -1.37 Q 85.14 -1.37 85.42 -1.58 Q 85.7 -1.79 85.7 -2.6 L 85.7 -2.6 L 85.7 -11.07 Q 85.7 -11.5 85.57 -11.62 Q 85.45 -11.75 85.08 -11.75 L 85.08 -11.75 Q 84.88 -11.75 84.51 -11.59 Q 84.14 -11.43 83.62 -11 Q 83.1 -10.57 82.65 -9.96 Q 82.2 -9.35 81.89 -8.31 Q 81.57 -7.28 81.57 -6.02 Z M 90.66 -2.77 Q 90.49 -3.4 90.49 -4.33 Q 90.49 -5.26 90.72 -6.34 L 90.72 -6.34 Q 91.15 -7.86 92.01 -8.64 L 92.01 -8.64 Q 93.67 -10.06 95.7 -10.59 L 95.7 -10.59 Q 95.24 -11.5 94.79 -11.8 L 94.79 -11.8 Q 94.04 -12.29 93.41 -12.29 L 93.41 -12.29 Q 93.25 -12.29 93.13 -12.39 Q 93.01 -12.5 93.01 -12.63 L 93.01 -12.63 L 92.96 -13.09 Q 92.96 -13.26 93.08 -13.42 Q 93.21 -13.58 93.38 -13.58 L 93.38 -13.58 Q 93.5 -13.58 93.6 -13.58 L 93.6 -13.58 Q 94.87 -13.58 95.95 -12.91 L 95.95 -12.91 Q 97.65 -11.84 97.65 -9.07 L 97.65 -9.07 L 97.68 -0.9 Q 97.68 0.03 96.83 0.03 L 96.83 0.03 L 93.68 0 Q 93.45 0 93.15 -0.07 Q 92.85 -0.15 92.48 -0.34 Q 92.1 -0.53 91.76 -0.82 Q 91.42 -1.12 91.13 -1.63 Q 90.83 -2.14 90.66 -2.77 Z M 92.06 -4.77 L 92.06 -4.77 Q 92.06 -3.99 92.25 -3.38 Q 92.43 -2.77 92.72 -2.41 Q 93.01 -2.04 93.39 -1.81 Q 93.76 -1.57 94.1 -1.48 Q 94.45 -1.4 94.79 -1.4 L 94.79 -1.4 Q 95.62 -1.4 95.9 -1.56 Q 96.17 -1.73 96.13 -2.32 L 96.13 -2.32 L 96.13 -8.78 Q 96.13 -9.1 95.57 -9.1 L 95.57 -9.1 Q 95.3 -9.1 94.75 -8.79 Q 94.2 -8.48 93.58 -7.96 Q 92.97 -7.44 92.52 -6.57 Q 92.06 -5.71 92.06 -4.77 Z M 101.74 -5.62 L 101.74 -5.62 Q 101.74 -6.78 101.95 -8.15 L 101.95 -8.15 Q 102.24 -9.82 103.16 -10.9 L 103.16 -10.9 Q 104.99 -12.93 107.29 -13.5 L 107.29 -13.5 L 107.29 -21.15 Q 107.29 -21.42 107.51 -21.58 Q 107.73 -21.74 108.04 -21.74 L 108.04 -21.74 Q 108.75 -21.74 108.75 -21.3 L 108.75 -21.3 L 108.75 -1.08 Q 108.75 0.08 107.91 0.08 L 107.91 0.08 Q 105.7 0.08 104.78 -0.08 L 104.78 -0.08 Q 104.54 -0.12 104.27 -0.22 Q 104 -0.32 103.63 -0.58 Q 103.26 -0.84 102.94 -1.22 Q 102.62 -1.6 102.33 -2.23 L 102.33 -2.23 Q 102.04 -2.87 101.88 -3.67 L 101.88 -3.67 Q 101.72 -4.43 101.72 -5.52 L 101.72 -5.52 Q 101.74 -5.56 101.74 -5.62 Z M 103.16 -6.02 L 103.16 -6.02 Q 103.19 -4.96 103.38 -4.11 Q 103.58 -3.27 103.87 -2.77 Q 104.16 -2.27 104.54 -1.94 Q 104.91 -1.61 105.25 -1.49 Q 105.58 -1.37 105.91 -1.37 L 105.91 -1.37 Q 106.73 -1.37 107.01 -1.58 Q 107.29 -1.79 107.29 -2.6 L 107.29 -2.6 L 107.29 -11.07 Q 107.29 -11.5 107.16 -11.62 Q 107.03 -11.75 106.67 -11.75 L 106.67 -11.75 Q 106.47 -11.75 106.1 -11.59 Q 105.73 -11.43 105.21 -11 Q 104.69 -10.57 104.24 -9.96 Q 103.79 -9.35 103.48 -8.31 Q 103.16 -7.28 103.16 -6.02 Z M 112.78 -3.7 L 112.78 -3.7 L 112.78 -9.91 Q 112.78 -10.03 112.78 -10.14 L 112.78 -10.14 Q 112.77 -11.5 113.66 -12.39 L 113.66 -12.39 Q 114.64 -13.37 116.21 -13.55 L 116.21 -13.55 Q 116.58 -13.61 116.92 -13.61 L 116.92 -13.61 Q 118.17 -13.61 119.21 -12.93 L 119.21 -12.93 Q 119.86 -12.47 120.1 -11.83 L 120.1 -11.83 Q 120.22 -11.51 120.22 -11.1 L 120.22 -11.1 Q 120.22 -10.68 120.08 -10.18 L 120.08 -10.18 Q 119.83 -9.18 118.99 -7.99 L 118.99 -7.99 Q 116.91 -5.37 114.35 -4.81 L 114.35 -4.81 L 114.35 -3.64 Q 114.4 -2.82 114.98 -2.2 Q 115.56 -1.57 116.7 -1.57 L 116.7 -1.57 Q 117.34 -1.57 118.13 -2.03 L 118.13 -2.03 Q 118.21 -2.07 118.53 -2.3 Q 118.84 -2.53 119.1 -2.66 Q 119.35 -2.78 119.56 -2.78 L 119.56 -2.78 Q 119.95 -2.77 120.12 -2.43 L 120.12 -2.43 Q 120.19 -2.29 120.19 -2.12 L 120.19 -2.12 Q 120.19 -1.83 120.02 -1.44 L 120.02 -1.44 Q 119.41 -0.66 118.38 -0.26 L 118.38 -0.26 Q 117.66 0.01 116.85 0.01 L 116.85 0.01 Q 116.54 0.01 116.21 -0.03 L 116.21 -0.03 Q 114.64 -0.21 113.66 -1.21 L 113.66 -1.21 Q 112.77 -2.14 112.78 -3.48 L 112.78 -3.48 Q 112.78 -3.59 112.78 -3.7 Z M 114.38 -10.18 L 114.38 -7.58 Q 114.38 -7.15 114.5 -7 Q 114.63 -6.86 115 -6.86 L 115 -6.86 Q 115.21 -6.86 115.95 -7.4 Q 116.7 -7.94 117.43 -8.69 L 117.43 -8.69 Q 118.2 -9.44 118.52 -10.23 L 118.52 -10.23 Q 118.62 -10.49 118.62 -10.73 L 118.62 -10.73 Q 118.62 -11.19 118.19 -11.52 L 118.19 -11.52 Q 117.37 -12.04 116.7 -12.04 L 116.7 -12.04 Q 115.65 -12.04 115.09 -11.49 Q 114.52 -10.94 114.38 -10.18 L 114.38 -10.18 Z" stroke-linecap="round" />
</g>
</g>
</g>
<g transform="matrix(1.9211538461538462 0 0 1.9211538461538462 541.646072955788 635.1907966899529)" id="tagline-6d649468-5fda-4246-a3da-beac8797da2e-logo"  >
<g style=""  paint-order="stroke"   >
		<g transform="matrix(1 0 0 1 0 0)" id="tagline-6d649468-5fda-4246-a3da-beac8797da2e-logo-path-0"  >
<path style="stroke: rgb(255,255,255); stroke-width: 0; stroke-dasharray: none; stroke-linecap: butt; stroke-dashoffset: 0; stroke-linejoin: miter; stroke-miterlimit: 4; fill: rgb(201,228,101); fill-rule: nonzero; opacity: 1;"  paint-order="stroke"  transform=" translate(-27.955000000000002, 11.745)" d="M 18.74 -0.03 L 2.3 -0.03 L 2.3 -23.49 L 18.74 -23.49 C 22.7 -23.49 25.77 -20.43 25.77 -16.47 C 25.77 -14.61 25.1 -13.07 23.96 -11.78 C 25.1 -10.55 25.77 -8.91 25.77 -7.06 C 25.77 -3.16 22.74 -0.03 18.74 -0.03 Z M 6.93 -4.75 L 18.74 -4.75 C 19.4 -4.75 19.96 -4.98 20.4 -5.41 C 20.83 -5.85 21.06 -6.4 21.06 -7.06 C 21.06 -8.41 20.08 -9.41 18.74 -9.41 L 6.93 -9.41 Z M 6.93 -14.13 L 18.74 -14.13 C 19.4 -14.13 19.96 -14.36 20.4 -14.79 C 20.83 -15.36 21.06 -15.92 21.06 -16.47 C 21.06 -17.77 19.98 -18.87 18.74 -18.87 L 6.93 -18.87 Z M 34.77 0 L 30.15 0 L 30.15 -23.46 L 34.87 -23.46 L 41.86 -16.44 L 48.91 -23.46 L 53.61 -23.46 L 53.61 0 L 48.91 0 L 48.91 -16.79 L 45.14 -13.1 L 45.23 -13.1 L 41.86 -9.8 L 34.77 -16.79 Z" stroke-linecap="round" />
</g>
</g>
</g>
<g transform="matrix(1.9211538461538462 0 0 1.9211538461538462 653.5396273770239 767.4711484292188)" id="text-logo"  >
<g style=""  paint-order="stroke"   >
		<g transform="matrix(1 0 0 1 0 0)" id="text-logo-path-0"  >
<path style="stroke: none; stroke-width: 0; stroke-dasharray: none; stroke-linecap: butt; stroke-dashoffset: 0; stroke-linejoin: miter; stroke-miterlimit: 4; fill: rgb(201,228,101); fill-rule: nonzero; opacity: 1;"  paint-order="stroke"  transform=" translate(-70.26, 9.245000000000001)" d="M 0.65 -8.4 L 0.65 -8.4 Q 0.65 -9.36 1.33 -10.04 Q 2.01 -10.71 2.96 -10.71 Q 3.91 -10.71 4.6 -10.04 Q 5.28 -9.36 5.28 -8.4 L 5.28 -8.4 Q 5.28 -7.44 4.6 -6.75 Q 3.91 -6.06 2.96 -6.06 Q 2.01 -6.06 1.33 -6.75 Q 0.65 -7.44 0.65 -8.4 Z M 15.66 -2.78 L 15.66 -2.78 L 15.66 -18.33 Q 15.64 -18.64 15.96 -18.64 L 15.96 -18.64 L 16.63 -18.64 Q 16.83 -18.64 16.95 -18.54 Q 17.06 -18.45 17.07 -18.36 L 17.07 -18.36 L 17.07 -18.26 L 17.07 -3.07 Q 17.1 -3.07 17.07 -2.97 Q 17.05 -2.87 17.09 -2.7 Q 17.14 -2.54 17.18 -2.34 Q 17.23 -2.15 17.39 -1.95 Q 17.56 -1.75 17.76 -1.59 Q 17.97 -1.42 18.34 -1.32 Q 18.71 -1.22 19.18 -1.22 L 19.18 -1.22 Q 19.8 -1.22 20.25 -1.41 Q 20.7 -1.6 20.89 -1.87 Q 21.08 -2.15 21.19 -2.42 Q 21.29 -2.69 21.29 -2.88 L 21.29 -2.88 L 21.29 -3.07 L 21.29 -18.28 Q 21.29 -18.45 21.38 -18.54 Q 21.47 -18.62 21.55 -18.64 L 21.55 -18.64 L 21.64 -18.64 L 22.35 -18.64 Q 22.52 -18.64 22.6 -18.55 Q 22.68 -18.46 22.68 -18.37 L 22.68 -18.37 L 22.68 -18.28 L 22.68 -2.78 L 22.68 -2.75 Q 22.68 -1.59 21.71 -0.72 Q 20.73 0.14 19.31 0.15 L 19.31 0.15 L 19.04 0.15 Q 17.63 0.14 16.65 -0.73 Q 15.66 -1.6 15.66 -2.78 Z M 33.55 -1.04 L 33.55 -1.04 L 33.57 -17.84 Q 33.57 -18.24 33.75 -18.43 Q 33.92 -18.61 34.28 -18.61 L 34.28 -18.61 Q 36.19 -18.61 36.99 -18.54 L 36.99 -18.54 Q 37.19 -18.51 37.43 -18.44 Q 37.66 -18.37 37.99 -18.19 Q 38.31 -18.01 38.58 -17.76 Q 38.86 -17.51 39.11 -17.08 L 39.11 -17.08 Q 39.38 -16.66 39.5 -16.12 L 39.5 -16.12 Q 39.63 -15.62 39.63 -14.89 L 39.63 -14.89 Q 39.63 -14.85 39.63 -14.82 L 39.63 -14.82 Q 39.63 -14.04 39.43 -13.13 L 39.43 -13.13 Q 39.26 -12.5 38.95 -12 Q 38.64 -11.49 38.37 -11.25 Q 38.09 -11.01 37.89 -10.81 Q 37.69 -10.61 37.69 -10.52 L 37.69 -10.52 Q 37.69 -10.47 37.96 -10.19 Q 38.23 -9.92 38.61 -9.43 Q 38.99 -8.94 39.38 -8.28 Q 39.77 -7.63 40.04 -6.63 Q 40.32 -5.64 40.32 -4.54 L 40.32 -4.54 Q 40.32 -2.69 39.29 -1.42 Q 38.26 -0.14 36.9 -0.03 L 36.9 -0.03 Q 36.43 0 35.9 0.03 L 35.9 0.03 Q 35.5 0.04 35.21 0.05 L 35.21 0.05 Q 35.11 0.05 35.03 0.05 L 35.03 0.05 Q 34.69 0.05 34.35 0.04 Q 34.01 0.03 33.99 0.03 L 33.99 0.03 Q 33.82 0.03 33.68 -0.27 Q 33.55 -0.56 33.55 -1.04 Z M 34.83 -16.64 L 34.83 -11.49 Q 34.83 -10.89 35.35 -10.89 L 35.35 -10.89 Q 35.54 -10.89 36.01 -11.15 Q 36.47 -11.41 37 -11.86 Q 37.53 -12.3 37.93 -13.03 Q 38.33 -13.76 38.33 -14.56 L 38.33 -14.56 Q 38.33 -15.37 38.11 -15.96 Q 37.88 -16.55 37.51 -16.85 Q 37.14 -17.15 36.77 -17.28 Q 36.39 -17.42 36.02 -17.42 L 36.02 -17.42 Q 35.3 -17.42 35.07 -17.28 Q 34.83 -17.15 34.83 -16.64 L 34.83 -16.64 Z M 34.91 -2.18 Q 34.91 -1.97 34.91 -1.89 Q 34.91 -1.82 34.94 -1.65 Q 34.97 -1.49 35.03 -1.42 Q 35.1 -1.36 35.23 -1.3 Q 35.36 -1.24 35.55 -1.24 L 35.55 -1.24 Q 35.82 -1.24 36.16 -1.3 Q 36.51 -1.36 37.01 -1.56 Q 37.52 -1.76 37.93 -2.08 Q 38.35 -2.4 38.66 -2.99 Q 38.98 -3.58 39.03 -4.34 L 39.03 -4.34 Q 39.05 -4.51 39.05 -4.67 L 39.05 -4.67 Q 39.05 -5.46 38.79 -6.25 L 38.79 -6.25 Q 38.49 -7.19 38.04 -7.84 Q 37.59 -8.49 37.24 -8.87 Q 36.9 -9.25 36.72 -9.38 L 36.72 -9.38 Q 36.65 -9.42 36.53 -9.48 Q 36.41 -9.55 36.09 -9.64 Q 35.78 -9.74 35.54 -9.72 Q 35.3 -9.7 35.1 -9.46 Q 34.91 -9.23 34.91 -8.76 L 34.91 -8.76 L 34.91 -2.18 Z M 50.18 -0.42 L 50.18 -0.42 Q 50.18 -0.67 51.3 -9.21 Q 52.42 -17.75 52.49 -18.09 L 52.49 -18.09 Q 52.61 -18.56 53.01 -18.56 L 53.01 -18.56 L 54.62 -18.56 Q 54.82 -18.56 54.97 -18.43 Q 55.12 -18.31 55.12 -18.09 L 55.12 -18.09 Q 55.18 -17.86 56.32 -9.28 Q 57.46 -0.7 57.46 -0.42 L 57.46 -0.42 Q 57.46 0.05 56.92 0.05 L 56.92 0.05 Q 56.18 0.05 56.11 -0.34 L 56.11 -0.34 Q 56.11 -0.41 56.02 -1.04 Q 55.94 -1.68 55.76 -3.01 Q 55.59 -4.34 55.43 -5.56 L 55.43 -5.56 Q 55.36 -5.85 55.17 -5.85 L 55.17 -5.85 L 52.46 -5.85 Q 52.28 -5.85 52.21 -5.56 L 52.21 -5.56 Q 52.06 -4.34 51.88 -3.01 Q 51.7 -1.68 51.62 -1.04 Q 51.54 -0.41 51.54 -0.34 L 51.54 -0.34 Q 51.48 0.05 50.72 0.05 L 50.72 0.05 Q 50.18 0.05 50.18 -0.42 Z M 52.63 -7.93 Q 52.55 -7.6 52.61 -7.53 Q 52.68 -7.46 52.98 -7.46 L 52.98 -7.46 L 54.65 -7.46 Q 54.95 -7.46 55.02 -7.53 Q 55.09 -7.6 55.01 -7.93 L 55.01 -7.93 Q 54.77 -9.76 54.49 -12.14 Q 54.2 -14.51 54.06 -15.77 Q 53.91 -17.02 53.87 -17.02 L 53.87 -17.02 L 53.77 -17.02 Q 53.73 -17.02 53.59 -15.77 Q 53.44 -14.51 53.15 -12.14 Q 52.87 -9.76 52.63 -7.93 L 52.63 -7.93 Z M 65.76 -17.76 L 65.76 -17.76 Q 65.76 -18.04 66.03 -18.33 Q 66.3 -18.61 66.53 -18.61 L 66.53 -18.61 L 72.89 -18.61 Q 73.43 -18.61 73.43 -17.86 L 73.43 -17.86 Q 73.43 -17.24 72.66 -17.24 L 72.66 -17.24 L 70.84 -17.24 Q 70.4 -17.24 70.32 -16.87 L 70.32 -16.87 L 70.32 -0.32 Q 70.32 -0.11 70.06 -0.01 Q 69.79 0.1 69.46 0.1 L 69.46 0.1 Q 68.93 0.1 68.89 -0.44 L 68.89 -0.44 L 68.89 -16.97 Q 68.89 -17.27 68.66 -17.27 L 68.66 -17.27 L 66.65 -17.27 Q 65.76 -17.27 65.76 -17.76 Z M 83.05 -2.78 L 83.05 -2.78 L 83.05 -18.33 Q 83.03 -18.64 83.34 -18.64 L 83.34 -18.64 L 84.02 -18.64 Q 84.22 -18.64 84.33 -18.54 Q 84.45 -18.45 84.46 -18.36 L 84.46 -18.36 L 84.46 -18.26 L 84.46 -3.07 Q 84.49 -3.07 84.46 -2.97 Q 84.44 -2.87 84.48 -2.7 Q 84.53 -2.54 84.57 -2.34 Q 84.61 -2.15 84.78 -1.95 Q 84.94 -1.75 85.15 -1.59 Q 85.36 -1.42 85.73 -1.32 Q 86.1 -1.22 86.57 -1.22 L 86.57 -1.22 Q 87.19 -1.22 87.64 -1.41 Q 88.09 -1.6 88.28 -1.87 Q 88.47 -2.15 88.58 -2.42 Q 88.68 -2.69 88.68 -2.88 L 88.68 -2.88 L 88.68 -3.07 L 88.68 -18.28 Q 88.68 -18.45 88.77 -18.54 Q 88.85 -18.62 88.94 -18.64 L 88.94 -18.64 L 89.03 -18.64 L 89.74 -18.64 Q 89.91 -18.64 89.99 -18.55 Q 90.07 -18.46 90.07 -18.37 L 90.07 -18.37 L 90.07 -18.28 L 90.07 -2.78 L 90.07 -2.75 Q 90.07 -1.59 89.1 -0.72 Q 88.12 0.14 86.7 0.15 L 86.7 0.15 L 86.43 0.15 Q 85.02 0.14 84.04 -0.73 Q 83.05 -1.6 83.05 -2.78 Z M 100.94 -1.04 L 100.94 -1.04 L 100.96 -17.84 Q 100.96 -18.24 101.13 -18.43 Q 101.31 -18.61 101.67 -18.61 L 101.67 -18.61 Q 103.58 -18.61 104.38 -18.54 L 104.38 -18.54 Q 104.58 -18.51 104.82 -18.44 Q 105.05 -18.37 105.37 -18.19 Q 105.7 -18.01 105.97 -17.76 Q 106.24 -17.51 106.5 -17.08 L 106.5 -17.08 Q 106.77 -16.66 106.89 -16.12 L 106.89 -16.12 Q 107.02 -15.62 107.02 -14.89 L 107.02 -14.89 Q 107.02 -14.85 107.02 -14.82 L 107.02 -14.82 Q 107.02 -14.04 106.82 -13.13 L 106.82 -13.13 Q 106.65 -12.5 106.34 -12 Q 106.03 -11.49 105.76 -11.25 Q 105.48 -11.01 105.28 -10.81 Q 105.08 -10.61 105.08 -10.52 L 105.08 -10.52 Q 105.08 -10.47 105.35 -10.19 Q 105.62 -9.92 106 -9.43 Q 106.38 -8.94 106.77 -8.28 Q 107.16 -7.63 107.43 -6.63 Q 107.7 -5.64 107.7 -4.54 L 107.7 -4.54 Q 107.7 -2.69 106.68 -1.42 Q 105.65 -0.14 104.29 -0.03 L 104.29 -0.03 Q 103.82 0 103.29 0.03 L 103.29 0.03 Q 102.89 0.04 102.6 0.05 L 102.6 0.05 Q 102.5 0.05 102.42 0.05 L 102.42 0.05 Q 102.08 0.05 101.74 0.04 Q 101.39 0.03 101.38 0.03 L 101.38 0.03 Q 101.2 0.03 101.07 -0.27 Q 100.94 -0.56 100.94 -1.04 Z M 102.22 -16.64 L 102.22 -11.49 Q 102.22 -10.89 102.74 -10.89 L 102.74 -10.89 Q 102.93 -10.89 103.39 -11.15 Q 103.86 -11.41 104.39 -11.86 Q 104.92 -12.3 105.32 -13.03 Q 105.72 -13.76 105.72 -14.56 L 105.72 -14.56 Q 105.72 -15.37 105.5 -15.96 Q 105.27 -16.55 104.9 -16.85 Q 104.53 -17.15 104.16 -17.28 Q 103.78 -17.42 103.41 -17.42 L 103.41 -17.42 Q 102.69 -17.42 102.45 -17.28 Q 102.22 -17.15 102.22 -16.64 L 102.22 -16.64 Z M 102.3 -2.18 Q 102.3 -1.97 102.3 -1.89 Q 102.3 -1.82 102.33 -1.65 Q 102.36 -1.49 102.42 -1.42 Q 102.49 -1.36 102.62 -1.3 Q 102.75 -1.24 102.94 -1.24 L 102.94 -1.24 Q 103.21 -1.24 103.55 -1.3 Q 103.9 -1.36 104.4 -1.56 Q 104.91 -1.76 105.32 -2.08 Q 105.74 -2.4 106.05 -2.99 Q 106.37 -3.58 106.42 -4.34 L 106.42 -4.34 Q 106.43 -4.51 106.43 -4.67 L 106.43 -4.67 Q 106.43 -5.46 106.18 -6.25 L 106.18 -6.25 Q 105.88 -7.19 105.43 -7.84 Q 104.97 -8.49 104.63 -8.87 Q 104.29 -9.25 104.11 -9.38 L 104.11 -9.38 Q 104.04 -9.42 103.91 -9.48 Q 103.79 -9.55 103.48 -9.64 Q 103.17 -9.74 102.93 -9.72 Q 102.69 -9.7 102.49 -9.46 Q 102.3 -9.23 102.3 -8.76 L 102.3 -8.76 L 102.3 -2.18 Z M 117.57 -0.42 L 117.57 -0.42 Q 117.57 -0.67 118.69 -9.21 Q 119.81 -17.75 119.88 -18.09 L 119.88 -18.09 Q 120 -18.56 120.4 -18.56 L 120.4 -18.56 L 122.01 -18.56 Q 122.21 -18.56 122.36 -18.43 Q 122.5 -18.31 122.5 -18.09 L 122.5 -18.09 Q 122.57 -17.86 123.71 -9.28 Q 124.85 -0.7 124.85 -0.42 L 124.85 -0.42 Q 124.85 0.05 124.31 0.05 L 124.31 0.05 Q 123.57 0.05 123.49 -0.34 L 123.49 -0.34 Q 123.49 -0.41 123.41 -1.04 Q 123.33 -1.68 123.15 -3.01 Q 122.97 -4.34 122.82 -5.56 L 122.82 -5.56 Q 122.75 -5.85 122.56 -5.85 L 122.56 -5.85 L 119.85 -5.85 Q 119.67 -5.85 119.6 -5.56 L 119.6 -5.56 Q 119.45 -4.34 119.27 -3.01 Q 119.09 -1.68 119.01 -1.04 Q 118.92 -0.41 118.92 -0.34 L 118.92 -0.34 Q 118.87 0.05 118.11 0.05 L 118.11 0.05 Q 117.57 0.05 117.57 -0.42 Z M 120.02 -7.93 Q 119.94 -7.6 120 -7.53 Q 120.07 -7.46 120.37 -7.46 L 120.37 -7.46 L 122.03 -7.46 Q 122.34 -7.46 122.41 -7.53 Q 122.48 -7.6 122.4 -7.93 L 122.4 -7.93 Q 122.16 -9.76 121.88 -12.14 Q 121.59 -14.51 121.44 -15.77 Q 121.3 -17.02 121.26 -17.02 L 121.26 -17.02 L 121.16 -17.02 Q 121.12 -17.02 120.97 -15.77 Q 120.83 -14.51 120.54 -12.14 Q 120.26 -9.76 120.02 -7.93 L 120.02 -7.93 Z M 135.24 -8.4 L 135.24 -8.4 Q 135.24 -9.36 135.91 -10.04 Q 136.59 -10.71 137.55 -10.71 Q 138.5 -10.71 139.18 -10.04 Q 139.87 -9.36 139.87 -8.4 L 139.87 -8.4 Q 139.87 -7.44 139.18 -6.75 Q 138.5 -6.06 137.55 -6.06 Q 136.59 -6.06 135.91 -6.75 Q 135.24 -7.44 135.24 -8.4 Z" stroke-linecap="round" />
</g>
</g>
</g>
</svg>